<svg xmlns="http://www.w3.org/2000/svg" viewBox="0 0 320 240" fill="none"><circle cx="192" cy="112" r="96" fill="#1b5053"/><circle cx="192" cy="112" r="71" stroke="#39696b" stroke-dasharray="3 8"/><path d="M18 197H246c48 0 56-59 14-59H80c-41 0-43-58 0-58h160" stroke="#83b5ad" stroke-width="2" stroke-dasharray="6 7"/><path d="M247 52v40M227 72h40" stroke="#9dbcb1" stroke-width="2"/><path d="M63 123h114v62H63z" fill="#c6e3d9"/><path d="M74 133h91M74 142h91M74 151h91" stroke="#8eb6ab" stroke-width="2"/><path d="M177 145h34l25 26v14h-59z" fill="#64b3a5"/><path d="M187 152h20l17 18h-37z" fill="#174d50"/><path d="M58 185h185" stroke="#edf6e9" stroke-width="5" stroke-linecap="round"/><circle cx="90" cy="188" r="13" fill="#10383e" stroke="#d5e9df" stroke-width="5"/><circle cx="210" cy="188" r="13" fill="#10383e" stroke="#d5e9df" stroke-width="5"/><path d="M240 72c0-17 24-17 24 0 0 10-12 21-12 21s-12-11-12-21z" fill="#e4bc7e"/><circle cx="252" cy="70" r="4" fill="#16474a"/><circle cx="31" cy="197" r="5" fill="#c6e3d9"/></svg>